<?xml version="1.0" encoding="UTF-8"?>
<svg xmlns="http://www.w3.org/2000/svg" version="1.1" viewBox="0 0 512 512">
  <defs>
    <style>
      .cls-1 {
        fill: #eee;
      }

      .cls-2 {
        fill: none;
        stroke: #eee;
        stroke-miterlimit: 10;
        stroke-width: 3px;
      }

      .cls-3 {
        fill: #eee;
        isolation: isolate;
      }

      .cls-4 {
        fill: none;
      }
    </style>
  </defs>
  <!-- Generator: Adobe Illustrator 28.7.0, SVG Export Plug-In . SVG Version: 1.2.0 Build 136)  -->
  <g>
    <g id="Layer_1">
      <g>
        <path class="cls-4" d="M44.6,389c-24.1-38-38-83.2-38-131.5,0-136,110.2-246.2,246.1-246.2s246.1,110.2,246.1,246.1-110.2,246.1-246.1,246.1-164.5-45.7-208.1-114.6"/>
        <path class="cls-1" d="M44.6,389c-24-36.3-37.9-79.1-40-122.6C-3.8,58.6,227.6-66.9,398,51.6c129.5,90.4,143.2,279.9,27.7,387.8-91.9,87.5-240.4,90.5-334.7,5.2-18.2-16.1-33.7-35-46.3-55.7,26.5,40.2,64.8,72.4,109.1,91.4,88.6,38.5,196,19.5,265.1-48.1,123.3-118,87.4-324.9-68.5-394.5C186.8-34.6,5.2,87.9,8.8,266.2c.9,43.1,13.4,85.9,35.8,122.7h0Z"/>
      </g>
      <circle class="cls-3" cx="79.6" cy="203.9" r="22.1"/>
      <circle class="cls-3" cx="326.3" cy="302.9" r="17.2"/>
      <rect class="cls-3" x="204.7" y="285.7" width="28.8" height="114.1" rx="12" ry="12"/>
      <rect class="cls-3" x="419.1" y="285.7" width="28.8" height="114.1" rx="12" ry="12"/>
      <rect class="cls-3" x="204.7" y="109.6" width="28.8" height="114.1" rx="12" ry="12"/>
      <rect class="cls-3" x="419.1" y="125.9" width="28.8" height="97.8" rx="11.1" ry="11.1"/>
      <rect class="cls-3" x="101.6" y="97.1" width="207.4" height="28.8" rx="14.4" ry="14.4"/>
      <rect class="cls-3" x="231.9" y="103.2" width="28.8" height="135.5" rx="13.1" ry="13.1" transform="translate(-52.5 146) rotate(-30)"/>
      <rect class="cls-3" x="354.5" y="161.3" width="114.7" height="28.8" rx="12.2" ry="12.2" transform="translate(53.8 444.5) rotate(-60)"/>
      <rect class="cls-3" x="79.6" y="288.5" width="153.9" height="28.8" rx="14" ry="14"/>
      <line class="cls-2" x1="459.1" y1="256" x2="57.5" y2="254.7"/>
    </g>
  </g>
</svg>